
<svg width="160" height="45" viewBox="0 0 160 45" fill="none" xmlns="http://www.w3.org/2000/svg">
<rect width="159.186" height="44.3703" rx="8.70005" fill="black"/>
<path d="M41.8256 23.1455C41.7913 19.33 44.9506 17.4737 45.0951 17.3873C43.3058 14.7792 40.5325 14.4229 39.5579 14.3945C37.2287 14.1494 34.9693 15.7879 33.7828 15.7879C32.5726 15.7879 30.7454 14.4182 28.7762 14.4584C26.242 14.4975 23.8714 15.9643 22.5711 18.242C19.8878 22.8862 21.8891 29.7111 24.4599 33.4651C25.7459 35.3048 27.2486 37.3564 29.2155 37.2842C31.1397 37.2061 31.8585 36.0589 34.1807 36.0589C36.4815 36.0589 37.1565 37.2842 39.1624 37.238C41.2276 37.2061 42.5278 35.3912 43.7688 33.5361C45.255 31.4301 45.8518 29.3536 45.8755 29.247C45.8281 29.2305 41.8659 27.7175 41.8256 23.1455ZM38.0363 11.925C39.0713 10.631 39.7794 8.87065 39.5828 7.08423C38.0849 7.15052 36.2115 8.1201 35.1327 9.38563C34.1783 10.5008 33.3257 12.3287 33.546 14.0476C35.2287 14.1731 36.9563 13.1988 38.0363 11.925Z" fill="white"/>
<path d="M58.0815 14.1486C57.4788 14.1486 56.9574 14.1191 56.5234 14.0694V7.532C57.1304 7.43826 57.7438 7.39206 58.3579 7.39381C60.8429 7.39381 61.9872 8.61614 61.9872 10.6086C61.9872 12.907 60.6355 14.1486 58.0815 14.1486ZM58.4453 8.23206C58.1099 8.23206 57.8243 8.25239 57.5875 8.30116V13.2707C57.7156 13.291 57.9615 13.3002 58.3071 13.3002C59.9353 13.3002 60.8622 12.3735 60.8622 10.6381C60.8622 9.09064 60.0237 8.23206 58.4453 8.23206ZM65.5536 14.1984C64.1531 14.1984 63.2455 13.1529 63.2455 11.7334C63.2455 10.254 64.1724 9.19936 65.6328 9.19936C67.013 9.19936 67.9409 10.1951 67.9409 11.6552C67.9409 13.1529 66.9846 14.1984 65.5536 14.1984ZM65.5942 9.97766C64.8249 9.97766 64.3319 10.697 64.3319 11.7029C64.3319 12.6895 64.835 13.4089 65.5841 13.4089C66.3331 13.4089 66.8362 12.6398 66.8362 11.6826C66.8362 10.7072 66.3433 9.97766 65.5942 9.97766ZM75.9273 9.29792L74.4282 14.0897H73.4515L72.8305 12.0088C72.6761 11.4998 72.5476 10.9833 72.4453 10.4613H72.425C72.3467 10.9836 72.1984 11.5068 72.0408 12.0088L71.3802 14.0897H70.3933L68.9827 9.29792H70.0773L70.62 11.5759C70.748 12.1185 70.8558 12.6306 70.9452 13.1143H70.9655C71.0438 12.7109 71.1719 12.2069 71.3599 11.5861L72.0408 9.29893H72.9088L73.5602 11.5373C73.7178 12.0799 73.8458 12.6123 73.9454 13.1153H73.9739C74.043 12.6225 74.1517 12.0992 74.2991 11.5373L74.8815 9.29893L75.9273 9.29792ZM81.446 14.0897H80.3809V11.3382C80.3809 10.4908 80.0556 10.0661 79.4143 10.0661C78.7832 10.0661 78.3492 10.6086 78.3492 11.2396V14.0897H77.2841V10.6676C77.2841 10.2439 77.2739 9.78969 77.2445 9.2969H78.1815L78.2313 10.0366H78.2608C78.5474 9.5245 79.1287 9.19936 79.7802 9.19936C80.7864 9.19936 81.447 9.96852 81.447 11.2203L81.446 14.0897ZM84.3832 14.0897H83.317V7.09915H84.3832V14.0897ZM88.2666 14.1984C86.8671 14.1984 85.9585 13.1529 85.9585 11.7334C85.9585 10.254 86.8854 9.19936 88.3448 9.19936C89.726 9.19936 90.6529 10.1951 90.6529 11.6552C90.654 13.1529 89.6966 14.1984 88.2666 14.1984ZM88.3062 9.97766C87.5369 9.97766 87.0439 10.697 87.0439 11.7029C87.0439 12.6895 87.548 13.4089 88.2951 13.4089C89.0451 13.4089 89.5472 12.6398 89.5472 11.6826C89.5482 10.7072 89.0563 9.97766 88.3062 9.97766ZM94.8524 14.0897L94.7752 13.538H94.7467C94.4215 13.982 93.9469 14.1984 93.3452 14.1984C92.4864 14.1984 91.8766 13.5969 91.8766 12.7881C91.8766 11.6054 92.9021 10.9937 94.6776 10.9937V10.9053C94.6776 10.2744 94.3433 9.95836 93.6826 9.95836C93.21 9.95836 92.7954 10.0772 92.4305 10.314L92.214 9.61391C92.6572 9.33754 93.21 9.19936 93.8595 9.19936C95.1116 9.19936 95.7438 9.8598 95.7438 11.1817V12.9466C95.7438 13.4302 95.7651 13.8052 95.8129 14.0907L94.8524 14.0897ZM94.7061 11.7029C93.5231 11.7029 92.9295 11.9895 92.9295 12.6692C92.9295 13.1722 93.2355 13.4181 93.6603 13.4181C94.202 13.4181 94.7061 13.0045 94.7061 12.4426V11.7029ZM100.916 14.0897L100.866 13.3205H100.837C100.531 13.9017 100.016 14.1984 99.2979 14.1984C98.1423 14.1984 97.2866 13.1823 97.2866 11.7527C97.2866 10.254 98.1738 9.19834 99.3853 9.19834C100.027 9.19834 100.481 9.41476 100.737 9.84964H100.758V7.09915H101.824V12.7983C101.824 13.2616 101.836 13.6954 101.864 14.0897H100.916ZM100.758 11.2701C100.758 10.5995 100.314 10.0275 99.6363 10.0275C98.8466 10.0275 98.3639 10.7275 98.3639 11.7131C98.3639 12.6794 98.8649 13.3408 99.615 13.3408C100.285 13.3408 100.758 12.7586 100.758 12.0687V11.2701ZM108.584 14.1984C107.185 14.1984 106.277 13.1529 106.277 11.7334C106.277 10.254 107.204 9.19936 108.663 9.19936C110.045 9.19936 110.971 10.1951 110.971 11.6552C110.973 13.1529 110.016 14.1984 108.584 14.1984ZM108.624 9.97766C107.855 9.97766 107.362 10.697 107.362 11.7029C107.362 12.6895 107.866 13.4089 108.614 13.4089C109.364 13.4089 109.866 12.6398 109.866 11.6826C109.868 10.7072 109.375 9.97766 108.624 9.97766ZM116.7 14.0897H115.633V11.3382C115.633 10.4908 115.308 10.0661 114.667 10.0661C114.036 10.0661 113.603 10.6086 113.603 11.2396V14.0897H112.537V10.6676C112.537 10.2439 112.526 9.78969 112.497 9.2969H113.434L113.484 10.0366H113.513C113.799 9.5245 114.381 9.19834 115.032 9.19834C116.038 9.19834 116.7 9.9675 116.7 11.2193V14.0897ZM123.866 10.0965H122.694V12.4233C122.694 13.0157 122.899 13.3114 123.314 13.3114C123.502 13.3114 123.659 13.291 123.786 13.2616L123.816 14.0704C123.61 14.1496 123.333 14.1893 122.99 14.1893C122.15 14.1893 121.648 13.7259 121.648 12.5127V10.0965H120.949V9.29792H121.648V8.42004L122.694 8.10404V9.2969H123.866V10.0965ZM129.504 14.0897H128.44V11.3585C128.44 10.5009 128.116 10.0671 127.474 10.0671C126.922 10.0671 126.408 10.442 126.408 11.201V14.0897H125.343V7.09915H126.408V9.97766H126.429C126.764 9.4554 127.25 9.19834 127.87 9.19834C128.884 9.19834 129.504 9.98681 129.504 11.2396V14.0897ZM135.281 11.9498H132.085C132.105 12.8572 132.706 13.3693 133.595 13.3693C134.068 13.3693 134.503 13.29 134.887 13.1427L135.053 13.8824C134.599 14.0795 134.066 14.1781 133.445 14.1781C131.946 14.1781 131.058 13.2311 131.058 11.7629C131.058 10.2937 131.967 9.1892 133.325 9.1892C134.549 9.1892 135.318 10.0965 135.318 11.4672C135.325 11.629 135.312 11.791 135.281 11.9498ZM134.304 11.1908C134.304 10.4511 133.931 9.92889 133.251 9.92889C132.639 9.92889 132.155 10.4613 132.086 11.1908H134.304Z" fill="white"/>
<path d="M67.9889 33.3011H65.6713L64.4018 29.3129H59.9891L58.7798 33.3011H56.5234L60.8963 19.7237H63.5966L67.9889 33.3011ZM64.0191 27.6397L62.871 24.0944C62.7496 23.7322 62.521 22.8793 62.1862 21.5367H62.1454C62.0107 22.1141 61.7954 22.967 61.5005 24.0944L60.3718 27.6397H64.0191ZM79.2124 28.2856C79.2124 29.9506 78.7604 31.2667 77.8552 32.2329C77.0449 33.0929 76.0376 33.5224 74.8365 33.5224C73.5394 33.5224 72.6067 33.0603 72.0403 32.1339V37.2708H69.8646V26.7287C69.8646 25.6829 69.837 24.6106 69.7839 23.5108H71.6974L71.8188 25.0626H71.8597C72.5853 23.8934 73.6864 23.3088 75.1641 23.3088C76.3193 23.3088 77.2837 23.7649 78.0552 24.678C78.8257 25.5931 79.2124 26.795 79.2124 28.2856ZM76.9959 28.3651C76.9959 27.4122 76.7816 26.6266 76.3509 26.0074C75.8805 25.3636 75.2488 25.0412 74.4569 25.0412C73.9201 25.0412 73.4323 25.2207 72.9965 25.5748C72.5597 25.9319 72.274 26.3981 72.1403 26.9756C72.0806 27.1915 72.0467 27.4138 72.0393 27.6377V29.2711C72.0393 29.9822 72.2577 30.5831 72.6944 31.0749C73.1312 31.5646 73.6986 31.8105 74.3967 31.8105C75.2161 31.8105 75.8539 31.4932 76.3101 30.8637C76.7673 30.2322 76.9959 29.3997 76.9959 28.3651ZM90.4758 28.2856C90.4758 29.9506 90.0237 31.2667 89.1185 32.2329C88.3072 33.0929 87.301 33.5224 86.0989 33.5224C84.8018 33.5224 83.869 33.0603 83.3026 32.1339V37.2708H81.1269V26.7287C81.1269 25.6829 81.0994 24.6106 81.0463 23.5108H82.9598L83.0812 25.0626H83.122C83.8466 23.8934 84.9477 23.3088 86.4264 23.3088C87.5806 23.3088 88.545 23.7649 89.3186 24.678C90.088 25.5931 90.4758 26.795 90.4758 28.2856ZM88.2583 28.3651C88.2583 27.4122 88.0429 26.6266 87.6123 26.0074C87.1418 25.3636 86.5122 25.0412 85.7202 25.0412C85.1835 25.0412 84.6957 25.2207 84.2579 25.5748C83.8211 25.9319 83.5363 26.3981 83.4027 26.9756C83.3363 27.2449 83.3006 27.4643 83.3006 27.6377V29.2711C83.3006 29.9822 83.52 30.5831 83.9548 31.0749C84.3915 31.5636 84.9589 31.8105 85.659 31.8105C86.4795 31.8105 87.1173 31.4932 87.5725 30.8637C88.0297 30.2322 88.2583 29.3997 88.2583 28.3651ZM103.069 29.4925C103.069 30.6484 102.665 31.5881 101.862 32.3135C100.978 33.1052 99.7441 33.502 98.1623 33.502C96.7009 33.502 95.5294 33.2205 94.6456 32.6563L95.1487 30.8433C96.1029 31.4085 97.151 31.6901 98.2919 31.6901C99.1124 31.6901 99.7502 31.5044 100.205 31.1361C100.662 30.7668 100.892 30.273 100.892 29.6568C100.892 29.1048 100.701 28.6426 100.327 28.2662C99.9502 27.8907 99.3277 27.5408 98.4531 27.2194C96.0754 26.3328 94.8854 25.0361 94.8854 23.3302C94.8854 22.2161 95.3059 21.304 96.1448 20.5909C96.9836 19.8788 98.096 19.5227 99.4798 19.5227C100.716 19.5227 101.745 19.738 102.563 20.1675L102.017 21.9407C101.247 21.5244 100.379 21.3163 99.4073 21.3163C98.6399 21.3163 98.0378 21.505 97.6072 21.8805C97.2449 22.2161 97.0612 22.6253 97.0612 23.1109C97.0612 23.6465 97.2704 24.0913 97.6867 24.4403C98.048 24.7616 98.7073 25.1116 99.6604 25.487C100.83 25.9584 101.689 26.5073 102.239 27.1378C102.793 27.7683 103.069 28.5549 103.069 29.4925ZM110.281 25.1432H107.883V29.8965C107.883 31.1055 108.305 31.7085 109.152 31.7085C109.541 31.7085 109.863 31.6758 110.119 31.6075L110.179 33.2592C109.75 33.4194 109.186 33.5 108.487 33.5C107.628 33.5 106.956 33.2378 106.471 32.7134C105.989 32.189 105.746 31.3106 105.746 30.074V25.1391H104.317V23.5067H105.746V21.7142L107.883 21.0694V23.5067H110.281V25.1432ZM121.08 28.3253C121.08 29.8302 120.649 31.0657 119.79 32.0319C118.891 33.0266 117.695 33.5224 116.204 33.5224C114.765 33.5224 113.621 33.046 112.768 32.0941C111.915 31.1402 111.488 29.9383 111.488 28.4886C111.488 26.9715 111.929 25.7288 112.808 24.7627C113.688 23.7955 114.874 23.3119 116.365 23.3119C117.802 23.3119 118.956 23.7894 119.83 24.7423C120.665 25.6666 121.08 26.8603 121.08 28.3253ZM118.825 28.3753C118.825 27.4785 118.631 26.7093 118.242 26.0655C117.786 25.2881 117.133 24.8994 116.287 24.8994C115.415 24.8994 114.747 25.2881 114.291 26.0655C113.902 26.7093 113.708 27.4918 113.708 28.4161C113.708 29.314 113.902 30.0853 114.291 30.727C114.762 31.5044 115.418 31.8931 116.268 31.8931C117.1 31.8931 117.752 31.4963 118.223 30.7076C118.624 30.0485 118.825 29.2742 118.825 28.3753ZM128.155 25.4238C127.929 25.3829 127.699 25.3628 127.469 25.3636C126.704 25.3636 126.112 25.6513 125.696 26.2308C125.334 26.7409 125.153 27.3857 125.153 28.1641V33.3011H122.977V26.594C122.979 25.5663 122.958 24.5386 122.914 23.5118H124.809L124.888 25.385H124.949C125.179 24.7412 125.541 24.2219 126.037 23.8332C126.491 23.4936 127.042 23.3096 127.609 23.3088C127.81 23.3088 127.992 23.3231 128.153 23.3486L128.155 25.4238ZM137.886 27.9428C137.891 28.2734 137.865 28.6038 137.806 28.9293H131.279C131.303 29.8965 131.62 30.6372 132.226 31.1473C132.776 31.6024 133.487 31.8309 134.361 31.8309C135.327 31.8309 136.209 31.6779 137.002 31.3687L137.343 32.8777C136.416 33.2817 135.322 33.4827 134.06 33.4827C132.541 33.4827 131.349 33.0358 130.482 32.1441C129.616 31.2514 129.183 30.0516 129.183 28.5488C129.183 27.0735 129.586 25.8441 130.393 24.8637C131.238 23.8169 132.38 23.2935 133.817 23.2935C135.228 23.2935 136.297 23.8169 137.022 24.8637C137.597 25.6931 137.886 26.7215 137.886 27.9428ZM135.811 27.3786C135.826 26.7327 135.683 26.1767 135.388 25.7064C135.012 25.1004 134.432 24.7984 133.656 24.7984C132.944 24.7984 132.365 25.0932 131.924 25.685C131.562 26.1553 131.346 26.7205 131.28 27.3765L135.811 27.3786Z" fill="white"/>
</svg>
