
<svg width="167" height="45" viewBox="0 0 167 45" fill="none" xmlns="http://www.w3.org/2000/svg">
<rect width="166.934" height="44.3703" rx="8.70005" fill="black"/>
<path d="M21.7281 9.23903C21.4047 9.54929 21.2969 10.0664 21.2969 10.6869V33.5431C21.2969 34.1637 21.5125 34.6808 21.8359 34.991L21.9437 35.0945L35.3106 22.2702V22.0633L21.7281 9.23903Z" fill="url(#paint0_linear_937_3257)"/>
<path d="M39.6189 26.6141L35.1992 22.3738V22.0635L39.6189 17.8232L39.7267 17.9266L45.0088 20.8224C46.518 21.6498 46.518 22.9943 45.0088 23.8217L39.6189 26.6141Z" fill="url(#paint1_linear_937_3257)"/>
<path d="M39.7288 26.5105L35.2013 22.1668L21.7266 35.0945C22.2656 35.6116 23.0201 35.6116 23.9903 35.1979L39.7288 26.5105Z" fill="url(#paint2_linear_937_3257)"/>
<path d="M39.7288 17.8226L23.9903 9.23859C23.0201 8.72149 22.2656 8.82491 21.7266 9.34202L35.2013 22.1663L39.7288 17.8226Z" fill="url(#paint3_linear_937_3257)"/>
<path opacity="0.2" d="M39.621 26.4069L23.9903 34.8875C23.1279 35.4046 22.3734 35.3012 21.8344 34.8875L21.7266 34.9909L21.8344 35.0943C22.3734 35.508 23.1279 35.6114 23.9903 35.0943L39.621 26.4069Z" fill="black"/>
<path opacity="0.12" d="M21.7281 34.8877C21.4047 34.5774 21.2969 34.0603 21.2969 33.4398V33.5432C21.2969 34.1637 21.5125 34.6808 21.8359 34.9911V34.8877H21.7281ZM45.0125 23.5113L39.6225 26.4071L39.7303 26.5105L45.0125 23.6147C45.767 23.201 46.0904 22.6839 46.0904 22.1668C46.0904 22.6839 45.6592 23.0976 45.0125 23.5113Z" fill="black"/>
<path opacity="0.25" d="M23.9918 9.34222L45.0125 20.822C45.6592 21.2357 46.0904 21.6494 46.0904 22.1665C46.0904 21.6494 45.767 21.1323 45.0125 20.7186L23.9918 9.2388C22.4827 8.41142 21.2969 9.03195 21.2969 10.6867V10.7901C21.2969 9.2388 22.4827 8.51485 23.9918 9.34222Z" fill="white"/>
<path d="M63.6593 11.3216C63.6593 12.2376 63.4303 13.0391 62.8578 13.6117C62.1707 14.2987 61.3692 14.6422 60.3387 14.6422C59.3081 14.6422 58.5066 14.2987 57.8196 13.6117C57.1326 12.9246 56.7891 12.1231 56.7891 11.0926C56.7891 10.062 57.1326 9.26051 57.8196 8.57349C58.5066 7.88647 59.3081 7.54295 60.3387 7.54295C60.7967 7.54295 61.2547 7.65746 61.7127 7.88646C62.1707 8.11547 62.5143 8.34448 62.7433 8.68799L62.1707 9.26051C61.7127 8.68799 61.1402 8.45898 60.3387 8.45898C59.6517 8.45898 58.9646 8.68799 58.5066 9.26051C57.9341 9.71853 57.7051 10.4056 57.7051 11.2071C57.7051 12.0086 57.9341 12.6956 58.5066 13.1536C59.0791 13.6117 59.6517 13.9552 60.3387 13.9552C61.1402 13.9552 61.7127 13.7262 62.2852 13.1536C62.6288 12.8101 62.8578 12.3521 62.8578 11.7796H60.3387V10.8636H63.6593V11.3216ZM68.9265 8.45898H65.8349V10.6346H68.6975V11.4361H65.8349V13.6117H68.9265V14.5277H64.9188V7.65746H68.9265V8.45898ZM72.7051 14.5277H71.7891V8.45898H69.8425V7.65746H74.6517V8.45898H72.7051V14.5277ZM77.9723 14.5277V7.65746H78.8883V14.5277H77.9723ZM82.7814 14.5277H81.8654V8.45898H79.9188V7.65746H84.6135V8.45898H82.6669V14.5277H82.7814ZM93.6593 13.6117C92.9723 14.2987 92.1708 14.6422 91.1402 14.6422C90.1097 14.6422 89.3082 14.2987 88.6211 13.6117C87.9341 12.9246 87.5906 12.1231 87.5906 11.0926C87.5906 10.062 87.9341 9.26051 88.6211 8.57349C89.3082 7.88647 90.1097 7.54295 91.1402 7.54295C92.1708 7.54295 92.9723 7.88647 93.6593 8.57349C94.3463 9.26051 94.6898 10.062 94.6898 11.0926C94.6898 12.1231 94.3463 12.9246 93.6593 13.6117ZM89.3082 13.0391C89.7662 13.4972 90.4532 13.8407 91.1402 13.8407C91.8272 13.8407 92.5143 13.6117 92.9723 13.0391C93.4303 12.5811 93.7738 11.8941 93.7738 11.0926C93.7738 10.291 93.5448 9.60402 92.9723 9.14601C92.5143 8.68799 91.8272 8.34448 91.1402 8.34448C90.4532 8.34448 89.7662 8.57349 89.3082 9.14601C88.8501 9.60402 88.5066 10.291 88.5066 11.0926C88.5066 11.8941 88.7356 12.5811 89.3082 13.0391ZM95.9494 14.5277V7.65746H96.9799L100.301 13.0391V7.65746H101.217V14.5277H100.301L96.7509 8.917V14.5277H95.9494Z" fill="white"/>
<path d="M85.144 24.0151C82.6236 24.0151 80.6282 25.9054 80.6282 28.5309C80.6282 31.0513 82.6236 33.0467 85.144 33.0467C87.6645 33.0467 89.6598 31.1563 89.6598 28.5309C89.6598 25.8004 87.6645 24.0151 85.144 24.0151ZM85.144 31.1563C83.7788 31.1563 82.6236 30.0011 82.6236 28.4259C82.6236 26.8506 83.7788 25.6954 85.144 25.6954C86.5093 25.6954 87.6645 26.7456 87.6645 28.4259C87.6645 30.0011 86.5093 31.1563 85.144 31.1563ZM75.3773 24.0151C72.8569 24.0151 70.8615 25.9054 70.8615 28.5309C70.8615 31.0513 72.8569 33.0467 75.3773 33.0467C77.8978 33.0467 79.8931 31.1563 79.8931 28.5309C79.8931 25.8004 77.8978 24.0151 75.3773 24.0151ZM75.3773 31.1563C74.0121 31.1563 72.8569 30.0011 72.8569 28.4259C72.8569 26.8506 74.0121 25.6954 75.3773 25.6954C76.7426 25.6954 77.8978 26.7456 77.8978 28.4259C77.8978 30.0011 76.7426 31.1563 75.3773 31.1563ZM63.7203 25.3803V27.2707H68.2361C68.1311 28.3208 67.711 29.161 67.1859 29.6861C66.5558 30.3162 65.5056 31.0513 63.7203 31.0513C60.8848 31.0513 58.7844 28.8459 58.7844 26.0104C58.7844 23.1749 60.9898 20.9696 63.7203 20.9696C65.1905 20.9696 66.3457 21.5997 67.1859 22.3348L68.5511 20.9696C67.3959 19.9194 65.9257 19.0792 63.8253 19.0792C60.0446 19.0792 56.7891 22.2298 56.7891 26.0104C56.7891 29.7911 60.0446 32.9416 63.8253 32.9416C65.9257 32.9416 67.3959 32.3115 68.6561 30.9463C69.9164 29.6861 70.3364 27.9008 70.3364 26.5355C70.3364 26.1155 70.3364 25.6954 70.2314 25.3803H63.7203ZM111.399 26.8506C110.979 25.8004 109.928 24.0151 107.618 24.0151C105.308 24.0151 103.417 25.8004 103.417 28.5309C103.417 31.0513 105.308 33.0467 107.828 33.0467C109.823 33.0467 111.084 31.7864 111.504 31.0513L110.033 30.0011C109.508 30.7363 108.878 31.2614 107.828 31.2614C106.778 31.2614 106.148 30.8413 105.623 29.8961L111.609 27.3757L111.399 26.8506ZM105.308 28.3208C105.308 26.6405 106.673 25.6954 107.618 25.6954C108.353 25.6954 109.088 26.1155 109.298 26.6405L105.308 28.3208ZM100.372 32.6266H102.367V19.4993H100.372V32.6266ZM97.2212 24.9603C96.6961 24.4352 95.8559 23.9101 94.8057 23.9101C92.6003 23.9101 90.5 25.9054 90.5 28.4259C90.5 30.9463 92.4953 32.8366 94.8057 32.8366C95.8559 32.8366 96.6961 32.3115 97.1161 31.7864H97.2212V32.4166C97.2212 34.0969 96.276 35.042 94.8057 35.042C93.6505 35.042 92.8104 34.2019 92.6003 33.4667L90.92 34.2019C91.4451 35.3571 92.7054 36.8273 94.9108 36.8273C97.2212 36.8273 99.1115 35.4621 99.1115 32.2065V24.2251H97.2212V24.9603ZM94.9108 31.1563C93.5455 31.1563 92.3903 30.0011 92.3903 28.4259C92.3903 26.8506 93.5455 25.6954 94.9108 25.6954C96.276 25.6954 97.3262 26.8506 97.3262 28.4259C97.3262 30.0011 96.276 31.1563 94.9108 31.1563ZM120.535 19.4993H115.809V32.6266H117.805V27.6907H120.535C122.741 27.6907 124.841 26.1155 124.841 23.595C124.841 21.0746 122.741 19.4993 120.535 19.4993ZM120.64 25.8004H117.805V21.2846H120.64C122.111 21.2846 122.951 22.5448 122.951 23.49C122.846 24.6452 122.006 25.8004 120.64 25.8004ZM132.717 23.9101C131.247 23.9101 129.777 24.5402 129.252 25.9054L131.037 26.6405C131.457 25.9054 132.087 25.6954 132.822 25.6954C133.873 25.6954 134.818 26.3255 134.923 27.3757V27.4807C134.608 27.2707 133.768 26.9556 132.927 26.9556C131.037 26.9556 129.147 28.0058 129.147 29.8961C129.147 31.6814 130.722 32.8366 132.402 32.8366C133.768 32.8366 134.398 32.2065 134.923 31.5764H135.028V32.6266H136.918V27.5857C136.708 25.2753 134.923 23.9101 132.717 23.9101ZM132.507 31.1563C131.877 31.1563 130.932 30.8413 130.932 30.0011C130.932 28.951 132.087 28.6359 133.032 28.6359C133.873 28.6359 134.293 28.8459 134.818 29.056C134.608 30.3162 133.558 31.1563 132.507 31.1563ZM143.534 24.2251L141.329 29.8961H141.224L138.913 24.2251H136.813L140.279 32.2065L138.283 36.6173H140.279L145.635 24.2251H143.534ZM125.891 32.6266H127.887V19.4993H125.891V32.6266Z" fill="white"/>
<defs>
<linearGradient id="paint0_linear_937_3257" x1="34.017" y1="10.4904" x2="16.6746" y2="28.5656" gradientUnits="userSpaceOnUse">
<stop stop-color="#00A0FF"/>
<stop offset="0.007" stop-color="#00A1FF"/>
<stop offset="0.26" stop-color="#00BEFF"/>
<stop offset="0.512" stop-color="#00D2FF"/>
<stop offset="0.76" stop-color="#00DFFF"/>
<stop offset="1" stop-color="#00E3FF"/>
</linearGradient>
<linearGradient id="paint1_linear_937_3257" x1="46.9859" y1="22.168" x2="20.902" y2="22.168" gradientUnits="userSpaceOnUse">
<stop stop-color="#0E3EFF"/>
<stop offset="0.409" stop-color="#0009FF"/>
<stop offset="0.775" stop-color="#00BBFF"/>
<stop offset="1" stop-color="#00FFCC"/>
</linearGradient>
<linearGradient id="paint2_linear_937_3257" x1="37.2786" y1="24.5413" x2="13.7621" y2="49.053" gradientUnits="userSpaceOnUse">
<stop stop-color="#FF3A44"/>
<stop offset="1" stop-color="#C31162"/>
</linearGradient>
<linearGradient id="paint3_linear_937_3257" x1="18.3816" y1="1.66398" x2="28.8833" y2="12.6101" gradientUnits="userSpaceOnUse">
<stop stop-color="#32A071"/>
<stop offset="0.069" stop-color="#2DA771"/>
<stop offset="0.476" stop-color="#15CF74"/>
<stop offset="0.801" stop-color="#06E775"/>
<stop offset="1" stop-color="#00F076"/>
</linearGradient>
</defs>
</svg>
